<svg width="16" height="28" viewBox="0 0 16 28" fill="none" xmlns="http://www.w3.org/2000/svg">
<path d="M7.74999 21.4718L0 16.8931L7.74881 27.8156L15.5047 16.8931L7.74881 21.4706L7.74999 21.4718Z" fill="url(#paint0_linear_34_1482)"/>
<path d="M15.5059 16.8931L7.75 27.8156V21.4706L15.5059 16.8931Z" fill="url(#paint1_linear_34_1482)"/>
<path d="M7.75 21.4718V20.7065L15.5059 16.8931" fill="#87CFC0"/>
<path d="M7.7571 21.4718V20.7065L0 16.8931" fill="url(#paint2_linear_34_1482)"/>
<path d="M5.94574 15.9063C5.88769 15.7191 5.85571 15.5213 5.85571 15.3164C5.85571 14.9562 5.95285 14.5973 6.13528 14.2857C6.29047 14.0263 6.49897 13.8024 6.74893 13.6342C6.97046 13.4825 7.22279 13.3783 7.48816 13.3261C8.10181 13.2183 8.55197 13.3652 8.82681 13.5145C8.8588 13.5311 8.88605 13.5477 8.91211 13.5654C8.97726 13.6045 9.0282 13.6425 9.06493 13.6721C9.11587 13.7112 9.14193 13.7396 9.14193 13.7396L9.28527 13.7491C9.28527 13.7491 9.27935 13.742 9.2758 13.7384C9.25684 13.7147 9.23789 13.6922 9.21775 13.6697C9.21064 13.6602 9.20235 13.6507 9.19524 13.6413C9.14312 13.582 9.08744 13.524 9.02939 13.4695C9.01873 13.46 9.00688 13.4505 8.9974 13.4411C8.96897 13.4174 8.94172 13.3949 8.91329 13.3724C8.828 13.3036 8.73559 13.2397 8.64082 13.184C8.60765 13.165 8.57567 13.1461 8.5425 13.1295C8.43943 13.0774 8.33163 13.0347 8.21909 13.0004C8.18118 12.9897 8.14445 12.9779 8.10536 12.9684C8.04139 12.953 7.9786 12.9423 7.91463 12.9352C7.86606 12.9293 7.81749 12.9257 7.76773 12.9222C7.73219 12.9198 7.69665 12.9163 7.66112 12.9163H7.65756C7.59833 12.9163 7.54028 12.9198 7.48223 12.9257H7.47868C6.58071 13.0098 5.84031 13.7076 5.59864 14.6411C5.57968 14.7122 5.56547 14.7833 5.55244 14.8555C5.52874 14.9977 5.51453 15.1446 5.51453 15.2939C5.51453 15.9596 5.76804 16.5911 6.20281 17.0377C6.21584 17.0507 6.22887 17.0637 6.2419 17.0768C6.26796 17.1028 6.29758 17.1277 6.32601 17.1514V16.6171C6.15187 16.4122 6.02156 16.1705 5.941 15.9075L5.94337 15.9051L5.94574 15.9063Z" fill="url(#paint3_linear_34_1482)"/>
<path d="M7.40886 12.7421L7.33423 11.7008C6.84141 11.7399 6.37703 11.8797 5.9624 12.1L6.67319 12.9719C6.90065 12.8547 7.14942 12.7717 7.40886 12.7421Z" fill="url(#paint4_linear_34_1482)"/>
<path d="M6.51319 13.0608L5.8024 12.1889C5.45174 12.3998 5.14018 12.6663 4.88074 12.9803L5.84978 13.6804C6.03222 13.4304 6.25849 13.2196 6.51437 13.0608H6.51319Z" fill="url(#paint5_linear_34_1482)"/>
<path d="M5.74799 13.8308L4.76947 13.1212C4.50056 13.4837 4.2968 13.8995 4.18188 14.3497L5.41511 14.6127C5.48619 14.3296 5.59754 14.0654 5.74681 13.8308H5.74799Z" fill="url(#paint6_linear_34_1482)"/>
<path d="M5.40441 15.9774L5.3748 15.8353C5.3748 15.8353 5.36887 15.8376 5.36532 15.8388L4.14868 15.9976V16.0047C4.25885 16.5081 4.47565 16.9713 4.77181 17.3706L5.71953 16.7131C5.57974 16.4868 5.47075 16.2404 5.4056 15.9762H5.40323L5.40441 15.9774Z" fill="url(#paint7_linear_34_1482)"/>
<path d="M8.88841 13.7633C8.60054 13.5761 8.2558 13.4683 7.88382 13.4683C7.79853 13.4683 7.71205 13.4742 7.62675 13.4849C7.35073 13.524 7.08181 13.6271 6.85199 13.7834C6.62217 13.9363 6.43262 14.1412 6.29165 14.377C6.1258 14.6589 6.03577 14.9859 6.03577 15.3152C6.03577 15.4668 6.05472 15.6125 6.08789 15.7535C6.36391 15.6019 6.59729 15.3875 6.82356 15.1541C7.01547 14.9562 7.20265 14.7454 7.41115 14.5511C7.47512 14.4895 7.54146 14.4338 7.61135 14.377C7.82222 14.2087 8.05797 14.0559 8.30911 13.9422C8.49155 13.8604 8.68583 13.7965 8.88367 13.7597L8.88722 13.7621L8.88841 13.7633Z" fill="url(#paint8_linear_34_1482)"/>
<path d="M6.3118 17.3824C6.13765 17.2462 5.9872 17.0839 5.85452 16.905C5.84386 16.8896 5.83083 16.8789 5.81898 16.8635L4.88074 17.5127C4.95182 17.6004 5.02763 17.6821 5.10819 17.7627C5.45292 18.1062 5.86755 18.3787 6.32838 18.5599V17.3931C6.32838 17.3931 6.31772 17.3836 6.3118 17.3777L6.30824 17.3812H6.3118V17.3824Z" fill="url(#paint9_linear_34_1482)"/>
<path d="M7.66115 10.9877C5.3108 10.9877 3.40588 12.8938 3.40588 15.2429C3.40588 17.5921 5.31199 19.4982 7.66115 19.4982C10.0103 19.4982 11.9164 17.5921 11.9164 15.2429C11.9164 12.8938 10.0127 10.9877 7.66115 10.9877ZM8.14804 18.9462C8.06275 18.9568 7.9739 18.9687 7.88505 18.9746C7.84359 18.9781 7.8045 18.9805 7.7654 18.9805C7.72631 18.9805 7.68484 18.9841 7.64457 18.9841H7.58652C7.52729 18.9841 7.46687 18.9805 7.40764 18.977C7.35907 18.9734 7.3105 18.971 7.26192 18.9663C6.96339 18.9379 6.67552 18.8751 6.40305 18.7815C6.39594 18.7815 6.38765 18.7779 6.38054 18.7744C5.70648 18.5375 5.12244 18.1122 4.69005 17.5625L4.67701 17.5471V17.5412C4.1842 16.9086 3.88922 16.1137 3.88922 15.2477C3.88922 14.9598 3.92239 14.6802 3.98399 14.4113V14.4018C3.98399 14.4018 3.98755 14.3959 3.98755 14.3912C4.11312 13.8593 4.35005 13.37 4.67465 12.9518C4.67465 12.9518 4.67465 12.9483 4.6782 12.9459L4.68531 12.9388C4.98384 12.5597 5.35345 12.2375 5.77519 11.9982C5.77519 11.9982 5.78111 11.9946 5.78111 11.9923C6.0441 11.8454 6.32605 11.7257 6.6234 11.6416C6.8319 11.5836 7.04869 11.5421 7.26903 11.5243L7.4337 11.5113C7.47279 11.5077 7.51426 11.5077 7.55335 11.5054C7.58889 11.5018 7.62443 11.5018 7.65997 11.5018C9.726 11.5018 11.4023 13.1781 11.4023 15.2441C11.4023 17.1455 9.98425 18.7116 8.14686 18.9473H8.14923L8.14804 18.9462Z" fill="url(#paint10_linear_34_1482)"/>
<path d="M7.56759 15.5237C7.58062 15.513 7.59365 15.4988 7.60669 15.4882C7.61616 15.4787 7.62564 15.4716 7.63512 15.4621L7.63156 15.4526L7.43017 14.788C7.26906 14.9444 7.11624 15.115 6.95631 15.2808C6.71701 15.5272 6.45994 15.7618 6.14246 15.93C6.21354 16.1302 6.3166 16.315 6.44691 16.4773C6.67081 16.3861 6.85799 16.238 7.03094 16.0722C7.21812 15.8933 7.38516 15.6919 7.56878 15.5237H7.56759Z" fill="url(#paint11_linear_34_1482)"/>
<path d="M7.519 15.8234C7.34486 16.0047 7.16598 16.2096 6.948 16.3837C6.94208 16.3873 6.93497 16.3909 6.92905 16.3968C6.87811 16.4359 6.82598 16.4714 6.77267 16.5069C6.7241 16.5306 6.53693 16.6242 6.51086 16.6325V18.6239C6.86152 18.7412 7.23469 18.8052 7.62681 18.8052C7.95495 18.8052 8.27244 18.7602 8.57453 18.676V15.2571C8.38617 15.2891 8.20492 15.3389 8.03551 15.4135C7.85781 15.4917 7.69433 15.6433 7.52019 15.8246H7.51782L7.519 15.8234Z" fill="url(#paint12_linear_34_1482)"/>
<path d="M7.78794 15.346C7.84362 15.3081 7.90167 15.2749 7.96209 15.2489C8.28905 15.1055 8.65274 15.0404 9.01287 15.0404C9.27942 15.0404 9.54241 15.0759 9.79356 15.1411C9.79356 15.1411 9.79593 15.1387 9.79711 15.1375C9.77105 14.6933 9.636 14.2822 9.42158 13.9375C9.39907 13.9316 9.37538 13.9268 9.35642 13.9221C9.30074 13.9126 9.26284 13.9126 9.26284 13.9126H9.12897C8.99273 13.9221 8.8565 13.9481 8.72382 13.9849C8.61009 14.0168 8.49755 14.0571 8.38738 14.1081C8.15045 14.2159 7.92773 14.358 7.72634 14.5203C7.67422 14.5618 7.62565 14.6044 7.57471 14.6495L7.76544 15.2726L7.78794 15.3437V15.346ZM9.32562 14.0275C9.34813 14.0204 9.37419 14.0334 9.3813 14.0571L9.6206 14.839C9.62771 14.8639 9.61468 14.8899 9.59098 14.8947C9.56848 14.9018 9.54004 14.8911 9.53531 14.8651L9.29601 14.0832C9.2889 14.0595 9.30193 14.0322 9.32562 14.0275ZM8.72856 14.1637C8.72856 14.1637 8.89441 14.7063 8.92876 14.8165C8.93469 14.8402 8.92284 14.8674 8.89915 14.8722C8.87545 14.8793 8.84821 14.8662 8.8411 14.8425C8.79016 14.6767 8.64089 14.1898 8.64089 14.1898C8.63379 14.1661 8.64682 14.1389 8.67051 14.1341C8.69302 14.127 8.72145 14.1401 8.72619 14.1637H8.72856ZM8.08292 14.4066C8.10543 14.3995 8.13386 14.4125 8.1386 14.4362C8.1386 14.4362 8.17414 14.5535 8.21086 14.6731C8.2393 14.7632 8.26536 14.8544 8.27957 14.8994C8.28668 14.9243 8.27365 14.9504 8.24996 14.9575C8.22745 14.9634 8.20139 14.9515 8.19428 14.9255C8.17769 14.871 8.16111 14.8153 8.14334 14.7608C8.12675 14.7063 8.11135 14.6566 8.09832 14.6115C8.06989 14.5215 8.05212 14.4599 8.05212 14.4599C8.04501 14.4362 8.05805 14.4113 8.08174 14.4042V14.4066H8.08292Z" fill="url(#paint13_linear_34_1482)"/>
<path d="M10.0849 16.4205C10.066 16.385 10.0423 16.34 10.0138 16.2878C9.95816 16.1883 9.89063 16.0663 9.84562 15.9407C9.81363 15.8566 9.79349 15.7713 9.79349 15.6837V15.6386C9.79349 15.5308 9.77335 15.4171 9.74847 15.3152C9.5151 15.2536 9.26514 15.2205 9.01518 15.2205C8.92751 15.2205 8.84103 15.224 8.75574 15.2335V17.4997C8.84696 17.5128 8.95713 17.5258 9.06967 17.5376C9.21301 17.553 9.35754 17.5637 9.45823 17.5637H9.51984C9.5613 17.5637 9.58855 17.553 9.60158 17.5436C9.61698 17.5341 9.62409 17.527 9.63119 17.5116C9.63475 17.5021 9.6383 17.4891 9.64186 17.4737C9.64541 17.4547 9.64541 17.431 9.64541 17.4026V17.3386C9.64541 17.3185 9.64186 17.2924 9.64186 17.264C9.64186 17.2438 9.64186 17.2225 9.64541 17.2024C9.64541 17.1822 9.64896 17.1609 9.65252 17.1408C9.65607 17.1254 9.65844 17.1123 9.66555 17.0958C9.67503 17.0792 9.68569 17.0661 9.69753 17.0531C9.7082 17.0425 9.72004 17.033 9.73071 17.0247C9.74611 17.0117 9.76388 17.0022 9.77928 16.9951L9.76388 16.9524V16.9489H9.5151C9.49022 16.9489 9.47008 16.9287 9.47008 16.9038C9.47008 16.879 9.49022 16.8588 9.5151 16.8588H9.7852L9.82785 16.8103V16.7937C9.82429 16.7617 9.82192 16.7226 9.81837 16.6906C9.81482 16.6705 9.81482 16.6515 9.81245 16.648V16.6326C9.81245 16.6124 9.81837 16.5935 9.82548 16.5804C9.83259 16.5674 9.84088 16.5603 9.84917 16.5544C9.8622 16.5437 9.87168 16.539 9.88234 16.5354C9.90129 16.5283 9.91551 16.5224 9.93447 16.5188C9.97237 16.5094 10.015 16.4999 10.0506 16.4892C10.0743 16.4821 10.0968 16.4738 10.1098 16.4655V16.4596C10.1039 16.4489 10.0968 16.4335 10.0873 16.4146L10.0802 16.4205H10.0849ZM9.5613 15.9822C9.53287 16.0011 9.50207 16.0118 9.46771 16.0201C9.43454 16.0272 9.39663 16.0331 9.35991 16.0331C9.32319 16.0331 9.28883 16.0272 9.25684 16.0201C9.22486 16.013 9.19761 16 9.17273 15.9751C9.15733 15.9561 9.1597 15.9289 9.17866 15.9111C9.19761 15.8957 9.22486 15.8957 9.24263 15.917C9.24263 15.9206 9.25803 15.9301 9.28054 15.9336C9.30305 15.9395 9.33266 15.9431 9.36109 15.9431C9.38953 15.9431 9.4227 15.9395 9.44876 15.9336C9.47482 15.9277 9.4997 15.9182 9.51036 15.9099C9.5305 15.8945 9.55893 15.8993 9.57196 15.9194C9.58736 15.9395 9.58262 15.968 9.56248 15.9834L9.5613 15.9822ZM9.59329 15.6777C9.59329 15.6777 9.56485 15.6706 9.52576 15.6611C9.48667 15.6517 9.43573 15.6386 9.399 15.6292C9.37294 15.6232 9.34806 15.6185 9.33977 15.6161H9.32911C9.31015 15.6161 9.28054 15.6221 9.25803 15.6315C9.23434 15.6375 9.21301 15.6469 9.20946 15.6469C9.18695 15.6564 9.16089 15.6469 9.15141 15.6232C9.14193 15.6007 9.15141 15.5723 9.1751 15.564C9.1751 15.564 9.19761 15.5569 9.22723 15.5474C9.25684 15.5379 9.29238 15.5285 9.33029 15.5285C9.3374 15.5285 9.34688 15.5285 9.35399 15.532C9.36939 15.532 9.39308 15.5391 9.42151 15.5474C9.44757 15.5533 9.47956 15.5628 9.50917 15.5676C9.56841 15.583 9.61935 15.596 9.61935 15.596C9.64186 15.6019 9.65844 15.628 9.65252 15.6505C9.6466 15.6742 9.62053 15.6896 9.59684 15.6837L9.59329 15.6801V15.6777Z" fill="url(#paint14_linear_34_1482)"/>
<path d="M9.1929 12.0219L9.01165 12.3453L8.93464 12.4815L8.65625 12.9767C8.67639 12.9874 8.69534 12.9968 8.71548 13.0087C8.81973 13.0667 8.91924 13.1343 9.01401 13.2089C9.046 13.2326 9.07562 13.2575 9.10523 13.2835C9.1929 13.3605 9.27345 13.4423 9.34927 13.5299C9.34927 13.5323 9.35283 13.5335 9.35519 13.5359L9.79707 13.2563L10.0541 13.094L10.3242 12.9222C10.0091 12.6201 9.68216 12.2707 9.18934 12.0207V12.0242L9.1929 12.0219Z" fill="url(#paint15_linear_34_1482)"/>
<path d="M7.66119 12.7256C7.70028 12.7256 7.73819 12.7291 7.77728 12.7315C7.90049 12.7386 8.02132 12.754 8.13979 12.7801C8.18125 12.7896 8.22034 12.8026 8.26062 12.8132C8.33762 12.8358 8.41226 12.8618 8.48689 12.8938L8.83636 12.2719L9.02354 11.9402C8.66459 11.7873 8.22271 11.6878 7.64934 11.6866C7.60788 11.6866 7.56523 11.6866 7.52258 11.689L7.59722 12.7291C7.61972 12.7291 7.64223 12.7256 7.66474 12.7256L7.66237 12.728L7.66119 12.7256Z" fill="url(#paint16_linear_34_1482)"/>
<path d="M4.42233 15.7737L5.34043 15.654H5.34635C5.33332 15.5462 5.32385 15.436 5.32385 15.3235C5.32385 15.1422 5.3428 14.9669 5.37834 14.7975V14.7904L4.14038 14.5274C4.09418 14.7608 4.06812 15.0001 4.06812 15.2477C4.06812 15.442 4.0847 15.6303 4.11432 15.8151L4.17236 15.808L4.4247 15.7748H4.42233V15.7737Z" fill="url(#paint17_linear_34_1482)"/>
<path d="M11.4034 15.2453C11.4034 13.1793 9.72716 11.503 7.66113 11.503C7.62559 11.503 7.59005 11.503 7.55451 11.5065C7.51305 11.5065 7.47395 11.5065 7.43486 11.5125L7.27019 11.5255C7.04985 11.5456 6.83306 11.5871 6.62456 11.6428C6.32721 11.7269 6.04645 11.8442 5.78227 11.9934C5.78227 11.9934 5.77872 11.997 5.77635 11.9994C5.35461 12.2387 4.985 12.5609 4.68647 12.94L4.67936 12.9471C4.67936 12.9471 4.67936 12.9506 4.6758 12.953C4.35121 13.3712 4.11191 13.8604 3.98871 14.3924C3.98871 14.3959 3.98515 14.3995 3.98515 14.403V14.4125C3.92355 14.6814 3.89038 14.961 3.89038 15.2489C3.89038 16.1125 4.18536 16.9086 4.67817 17.5423V17.5483L4.69121 17.5637C5.12479 18.1122 5.70882 18.5398 6.3817 18.7756C6.38763 18.7791 6.3971 18.7815 6.40421 18.7827C6.67668 18.8763 6.96455 18.939 7.26308 18.9675C7.31165 18.9734 7.36023 18.9746 7.4088 18.9781C7.46803 18.9841 7.52845 18.9841 7.58768 18.9853H7.64573C7.68719 18.9853 7.72628 18.9853 7.76656 18.9817C7.80802 18.9817 7.84712 18.9781 7.88621 18.9758C7.97624 18.9698 8.06154 18.9592 8.1492 18.9473C8.24398 18.9343 8.33756 18.9177 8.43115 18.8964C10.1276 18.5434 11.4046 17.0448 11.4046 15.2441H11.4023L11.4034 15.2453ZM9.45706 17.5649C9.35636 17.5649 9.21065 17.5542 9.06849 17.5388C8.95832 17.5281 8.84815 17.5151 8.75456 17.5009V15.2346C8.83986 15.2275 8.9287 15.2216 9.014 15.2216C9.26396 15.2216 9.51392 15.2548 9.7473 15.3164C9.77099 15.4171 9.79232 15.5332 9.79232 15.6398V15.6848C9.79232 15.7725 9.81482 15.859 9.84444 15.9419C9.88946 16.0675 9.95698 16.1907 10.0127 16.289C10.0411 16.3411 10.0648 16.3861 10.0837 16.4217C10.0932 16.4406 10.0991 16.4548 10.1062 16.4667V16.4726C10.0932 16.4797 10.0731 16.488 10.047 16.4963C10.0115 16.507 9.96646 16.5164 9.93092 16.5259C9.91196 16.5295 9.89775 16.5354 9.87879 16.5425C9.86813 16.5461 9.85866 16.5496 9.84562 16.5615C9.83852 16.5674 9.83022 16.5769 9.82193 16.5875C9.81245 16.5982 9.8089 16.6195 9.8089 16.6396V16.655C9.8089 16.655 9.81245 16.6775 9.81482 16.6977C9.81838 16.7297 9.82075 16.7688 9.8243 16.8008V16.8173L9.78165 16.8659H9.51155C9.48786 16.8659 9.46654 16.886 9.46654 16.9109C9.46654 16.9358 9.48667 16.9559 9.51155 16.9559H9.76033V16.9595L9.77573 17.0021C9.76033 17.0093 9.74256 17.0187 9.72716 17.0318C9.7165 17.0389 9.70465 17.0483 9.69399 17.0602C9.68333 17.0732 9.67148 17.0839 9.662 17.1028C9.65489 17.1194 9.65134 17.1348 9.64897 17.1479C9.64542 17.168 9.64305 17.1893 9.64186 17.2095C9.64186 17.232 9.63831 17.2521 9.63831 17.2711C9.63831 17.2995 9.63831 17.3256 9.64186 17.3457V17.4097C9.64186 17.4357 9.64186 17.4618 9.63831 17.4807C9.63476 17.4961 9.63239 17.5092 9.62765 17.5187C9.62054 17.5341 9.61462 17.5412 9.59803 17.5506C9.585 17.5601 9.55657 17.5696 9.51629 17.5708H9.45469L9.4618 17.5649H9.45706ZM7.63625 15.4633C7.62677 15.4728 7.61729 15.4799 7.60782 15.4893C7.59479 15.5 7.58175 15.513 7.56872 15.5249C7.38629 15.6931 7.21807 15.8945 7.03089 16.0734C6.85675 16.2392 6.67076 16.3873 6.44686 16.4785C6.31655 16.3162 6.21348 16.1314 6.1424 15.9312C6.45989 15.7654 6.71696 15.5284 6.95626 15.282C7.11619 15.1162 7.27019 14.9456 7.43012 14.7892L7.63151 15.4538L7.63506 15.4633H7.63625ZM6.20756 17.0365C5.77279 16.5887 5.51928 15.9573 5.51928 15.2927C5.51928 15.1434 5.53468 14.9953 5.55719 14.8544C5.57022 14.7821 5.58562 14.711 5.60339 14.6399C5.84387 13.7064 6.58546 13.0087 7.48343 12.9246H7.48698C7.54503 12.9186 7.60426 12.9151 7.66231 12.9151H7.66587C7.7014 12.9151 7.73694 12.9186 7.77248 12.921C7.82342 12.9246 7.87081 12.9269 7.91938 12.9341C7.98454 12.9435 8.04851 12.953 8.11011 12.9672C8.1492 12.9767 8.18474 12.9874 8.22384 12.9992C8.33638 13.0324 8.44181 13.0762 8.54725 13.1283C8.58042 13.1449 8.61477 13.1639 8.64676 13.1828C8.74153 13.2385 8.83393 13.3001 8.91923 13.3712C8.94766 13.3937 8.97491 13.4162 9.00334 13.4399C9.014 13.4494 9.02585 13.4589 9.03532 13.4683C9.09337 13.5228 9.14905 13.5809 9.20117 13.6401C9.20828 13.6496 9.21657 13.6591 9.22368 13.6685C9.24264 13.691 9.26278 13.7147 9.28173 13.7372C9.28528 13.7408 9.28884 13.7444 9.29121 13.7479L9.14786 13.7384C9.14786 13.7384 9.1218 13.71 9.07086 13.6709C9.03295 13.6413 8.9832 13.6034 8.91804 13.5643C8.89198 13.5477 8.86236 13.5311 8.83275 13.5133C8.55791 13.3664 8.10892 13.216 7.49409 13.325C7.22873 13.3771 6.97758 13.4814 6.75487 13.633C6.50491 13.8012 6.29404 14.0251 6.14122 14.2846C5.95878 14.5961 5.86164 14.9527 5.86164 15.3152C5.86164 15.5201 5.89363 15.718 5.95167 15.9052C6.03223 16.1705 6.16254 16.411 6.33669 16.6159V17.1502C6.30825 17.1265 6.27864 17.1017 6.25258 17.0756C6.23954 17.0626 6.22651 17.0495 6.21348 17.0365H6.21111H6.20756ZM8.88961 13.7657C8.69177 13.8012 8.49986 13.8652 8.31505 13.9481C8.06272 14.0618 7.82816 14.2147 7.6173 14.3829C7.54859 14.4386 7.48106 14.4966 7.41709 14.557C7.20859 14.7513 7.01905 14.9634 6.8295 15.16C6.60205 15.3934 6.36867 15.6078 6.09383 15.7594C6.06066 15.6173 6.04171 15.4716 6.04171 15.3211C6.04171 14.9906 6.12937 14.6636 6.29759 14.3829C6.43738 14.1459 6.6293 13.941 6.85793 13.7894C7.08776 13.633 7.35667 13.5299 7.6327 13.4908C7.71799 13.4802 7.80447 13.4743 7.88976 13.4743C8.25938 13.4743 8.60411 13.5821 8.89435 13.7692L8.8908 13.7669L8.88961 13.7657ZM7.57702 14.6518C7.62796 14.6068 7.67534 14.5618 7.72865 14.5227C7.93004 14.3604 8.15394 14.2182 8.38969 14.1104C8.49986 14.0595 8.61122 14.0204 8.72613 13.9872C8.85881 13.9493 8.99268 13.9232 9.13128 13.9149H9.26514C9.26514 13.9149 9.30305 13.9149 9.35873 13.9244C9.37769 13.928 9.40138 13.9339 9.42389 13.9398C9.64068 14.2846 9.77336 14.6956 9.79942 15.1399C9.79942 15.1399 9.79705 15.1422 9.79587 15.1434C9.54709 15.0783 9.28291 15.0427 9.01518 15.0427C8.65505 15.0427 8.29136 15.1079 7.9644 15.2512C7.90517 15.2773 7.84712 15.3105 7.79025 15.3484L7.76775 15.2773L7.57702 14.6542V14.6518ZM10.3266 12.9234L10.0565 13.0952L9.79942 13.2575L9.35755 13.537C9.35755 13.537 9.35399 13.5335 9.35162 13.5311C9.27462 13.4435 9.19525 13.3593 9.10759 13.2847C9.07797 13.2586 9.04835 13.2338 9.01637 13.2101C8.9216 13.1354 8.82208 13.0679 8.71784 13.0099C8.69888 12.9992 8.67874 12.9897 8.6586 12.9779L8.937 12.4827L9.014 12.3465L9.19525 12.0231C9.6857 12.273 10.0127 12.6201 10.3301 12.9246V12.921L10.3266 12.9234ZM7.6481 11.6902C8.22265 11.6925 8.66334 11.7932 9.02229 11.9437L8.83512 12.2754L8.48564 12.8973C8.41338 12.8653 8.33638 12.8393 8.25938 12.8168C8.22028 12.8061 8.17882 12.7931 8.13854 12.7836C8.02126 12.7552 7.89924 12.741 7.77604 12.735C7.73694 12.7327 7.69904 12.7291 7.65994 12.7291C7.63743 12.7291 7.61492 12.7327 7.59242 12.7327L7.51778 11.6925C7.56043 11.6925 7.60308 11.6902 7.64454 11.6902L7.64691 11.6878L7.6481 11.6902ZM7.33416 11.7032L7.4088 12.7445C7.14699 12.7765 6.90058 12.857 6.67313 12.9743L5.96234 12.1024C6.37815 11.8809 6.84135 11.7423 7.33416 11.7032ZM5.80359 12.1913L6.51438 13.0632C6.2585 13.2231 6.0346 13.4328 5.84979 13.6827L4.88075 12.9826C5.14019 12.6687 5.45175 12.3998 5.80241 12.1913H5.80359ZM4.77176 13.1248L5.75028 13.8344C5.60102 14.0701 5.48848 14.3343 5.41858 14.6163L4.18536 14.3533C4.30146 13.9031 4.50403 13.4897 4.77295 13.1248H4.77176ZM4.14034 14.5286L5.3783 14.7916V14.7987C5.34276 14.9681 5.32381 15.1458 5.32381 15.3247C5.32381 15.4372 5.33329 15.5462 5.34632 15.6552H5.34039L4.42229 15.7748L4.16996 15.808L4.11191 15.8151C4.08229 15.6303 4.06571 15.4396 4.06571 15.2477C4.06571 14.9989 4.09177 14.7608 4.13797 14.5274H4.14034V14.5286ZM4.14982 16.0082V16.0011L5.36527 15.8424C5.36527 15.8424 5.3712 15.84 5.37475 15.8388L5.40437 15.981C5.47189 16.2463 5.57851 16.4927 5.7183 16.7178L4.77058 17.3753C4.47323 16.9761 4.25762 16.5129 4.14863 16.0094H4.151L4.14982 16.0082ZM6.33195 18.5635C5.86875 18.3823 5.45649 18.1098 5.11176 17.7662C5.0312 17.6857 4.95657 17.6016 4.8843 17.5163L5.82255 16.8671C5.83321 16.8825 5.84624 16.8955 5.85809 16.9086C5.9884 17.0874 6.14003 17.2497 6.31536 17.386L6.31892 17.3824C6.31892 17.3824 6.32839 17.3919 6.3355 17.3978V18.5647H6.33195V18.5635ZM7.62796 18.8099C7.23821 18.8099 6.86267 18.746 6.51201 18.6287V16.6373C6.54045 16.6302 6.72525 16.5366 6.77382 16.5117C6.82832 16.4762 6.88044 16.4406 6.9302 16.4015C6.93612 16.398 6.94323 16.3944 6.94915 16.3885C7.16713 16.2144 7.34719 16.0094 7.52015 15.8282C7.6943 15.6469 7.85778 15.4965 8.03548 15.4171C8.20488 15.3424 8.38613 15.2903 8.57449 15.2607V18.6796C8.27241 18.7637 7.95492 18.8087 7.62677 18.8087H7.62914L7.62796 18.8099Z" fill="url(#paint18_linear_34_1482)"/>
<path d="M8.14565 14.7632C8.16224 14.8177 8.17882 14.8733 8.19659 14.9278C8.2037 14.9527 8.22976 14.9657 8.25227 14.9598C8.27715 14.9527 8.29018 14.9266 8.28189 14.9018C8.26886 14.8556 8.24043 14.7655 8.21318 14.6755C8.17527 14.5558 8.14091 14.4386 8.14091 14.4386C8.13499 14.4161 8.10774 14.4007 8.08524 14.409C8.06273 14.4161 8.04733 14.4409 8.05562 14.4646C8.05562 14.4646 8.07457 14.5262 8.10182 14.6163C8.11485 14.6613 8.13025 14.711 8.14684 14.7655V14.7632H8.14565Z" fill="url(#paint19_linear_34_1482)"/>
<path d="M9.59327 14.8958C9.61697 14.8899 9.63118 14.8639 9.62289 14.8402L9.38359 14.0583C9.37648 14.0334 9.35042 14.0204 9.32791 14.0287C9.3054 14.0346 9.29 14.0607 9.2983 14.0844L9.5376 14.8662C9.54352 14.8911 9.56958 14.9041 9.59327 14.8958Z" fill="url(#paint20_linear_34_1482)"/>
<path d="M8.90025 14.8733C8.92276 14.8674 8.93579 14.8414 8.92987 14.8177C8.8967 14.7075 8.72966 14.1649 8.72966 14.1649C8.72374 14.14 8.69649 14.127 8.67398 14.1353C8.65147 14.1412 8.63607 14.1673 8.64436 14.191C8.64436 14.191 8.79363 14.6779 8.84457 14.8437C8.85168 14.8662 8.87774 14.8816 8.90262 14.8733H8.90025Z" fill="url(#paint21_linear_34_1482)"/>
<path d="M9.56136 15.9821C9.5815 15.9667 9.58505 15.9395 9.57084 15.9182C9.5578 15.898 9.52937 15.8945 9.50923 15.9087C9.49857 15.9158 9.47606 15.9253 9.44763 15.9324C9.42157 15.9383 9.38958 15.9419 9.35997 15.9419C9.33035 15.9419 9.30073 15.9383 9.27941 15.9324C9.2569 15.9265 9.2415 15.917 9.2415 15.9158C9.22492 15.8968 9.19649 15.8957 9.17753 15.9099C9.15858 15.9265 9.15739 15.9549 9.17161 15.9738C9.1953 15.9975 9.22373 16.0118 9.25572 16.0189C9.2877 16.026 9.32324 16.0319 9.35878 16.0319C9.39432 16.0319 9.43105 16.026 9.46659 16.0189C9.49976 16.0118 9.53174 15.9999 9.56017 15.981L9.56136 15.9821Z" fill="url(#paint22_linear_34_1482)"/>
<path d="M9.2059 15.6445C9.2059 15.6445 9.22841 15.6351 9.25447 15.6291C9.27698 15.622 9.30659 15.6137 9.32555 15.6137H9.33621C9.34687 15.6137 9.36938 15.6197 9.39544 15.6268C9.43453 15.6362 9.48547 15.6493 9.5222 15.6587C9.56129 15.6682 9.58972 15.6753 9.58972 15.6753C9.61342 15.6813 9.64066 15.6682 9.6454 15.6422C9.65133 15.6197 9.63593 15.5936 9.61223 15.5877C9.61223 15.5877 9.56011 15.5746 9.50206 15.5592C9.47244 15.5533 9.44283 15.5438 9.4144 15.5391C9.38596 15.5332 9.36227 15.5261 9.34687 15.5237C9.33976 15.5237 9.33029 15.5201 9.32199 15.5201C9.28408 15.5201 9.24973 15.5296 9.21893 15.5391C9.18931 15.5486 9.1668 15.5557 9.1668 15.5557C9.14429 15.5652 9.13363 15.5912 9.14311 15.6149C9.15259 15.6386 9.17865 15.6481 9.20116 15.6386L9.20471 15.6422L9.2059 15.6445Z" fill="url(#paint23_linear_34_1482)"/>
<path d="M6.14117 15.8376C6.08313 15.6504 6.05114 15.4526 6.05114 15.2476C6.05114 14.8875 6.14828 14.5286 6.33072 14.217C6.48591 13.9576 6.69441 13.7337 6.94437 13.5654C7.1659 13.4138 7.41823 13.3095 7.68359 13.2574C8.29724 13.1496 8.74741 13.2965 9.02225 13.4458C9.05423 13.4624 9.08148 13.479 9.10754 13.4967C9.1727 13.5358 9.22364 13.5737 9.26036 13.6033C9.3113 13.6424 9.33736 13.6709 9.33736 13.6709L9.48071 13.6803C9.48071 13.6803 9.47478 13.6732 9.47123 13.6697C9.45227 13.646 9.43332 13.6235 9.41318 13.601C9.40607 13.5915 9.39778 13.582 9.39067 13.5725C9.33855 13.5133 9.28287 13.4553 9.22482 13.4008C9.21416 13.3913 9.20231 13.3818 9.19284 13.3723C9.1644 13.3486 9.13716 13.3261 9.10873 13.3036C9.02343 13.2349 8.93103 13.1709 8.83626 13.1153C8.80309 13.0963 8.7711 13.0774 8.73793 13.0608C8.63487 13.0086 8.52706 12.966 8.41452 12.9316C8.37661 12.921 8.33989 12.9091 8.30079 12.8997C8.23682 12.8843 8.17404 12.8736 8.11006 12.8665C8.06149 12.8606 8.01292 12.857 7.96317 12.8535C7.92763 12.8511 7.89209 12.8475 7.85655 12.8475H7.853C7.79376 12.8475 7.73571 12.8511 7.67767 12.857H7.67411C6.77615 12.9411 6.03574 13.6389 5.79407 14.5724C5.77512 14.6435 5.7609 14.7145 5.74787 14.7868C5.72418 14.929 5.70996 15.0759 5.70996 15.2251C5.70996 15.8909 5.96348 16.5223 6.39824 16.9689C6.41127 16.982 6.42431 16.995 6.43734 17.008C6.4634 17.0341 6.49302 17.059 6.52145 17.0827V16.5484C6.3473 16.3434 6.21699 16.1018 6.13644 15.8388L6.1388 15.8364L6.14117 15.8376Z" fill="#2D937A"/>
<path d="M7.6043 12.6734L7.52966 11.6321C7.03685 11.6712 6.57246 11.811 6.15784 12.0313L6.86863 12.9032C7.09608 12.7859 7.34486 12.703 7.6043 12.6734Z" fill="#2D937A"/>
<path d="M6.70862 12.9921L5.99783 12.1202C5.64717 12.331 5.33561 12.5976 5.07617 12.9115L6.04522 13.6117C6.22765 13.3617 6.45392 13.1508 6.70981 12.9921H6.70862Z" fill="#2D937A"/>
<path d="M5.94343 13.7621L4.96491 13.0525C4.69599 13.415 4.49223 13.8308 4.37732 14.281L5.61054 14.544C5.68162 14.2608 5.79298 13.9967 5.94224 13.7621H5.94343Z" fill="#2D937A"/>
<path d="M5.59985 15.9075L5.57023 15.7654C5.57023 15.7654 5.56431 15.7678 5.56075 15.7689L4.34412 15.9277V15.9348C4.45429 16.4383 4.67108 16.9015 4.96724 17.3007L5.91496 16.6432C5.77518 16.4169 5.66619 16.1705 5.60103 15.9064H5.59866L5.59985 15.9075Z" fill="#2D937A"/>
<path d="M9.08384 13.6934C8.79597 13.5062 8.45124 13.3984 8.07926 13.3984C7.99396 13.3984 7.90748 13.4044 7.82219 13.415C7.54616 13.4541 7.27725 13.5572 7.04743 13.7136C6.8176 13.8664 6.62806 14.0713 6.48709 14.3071C6.32123 14.589 6.2312 14.916 6.2312 15.2453C6.2312 15.3969 6.25016 15.5427 6.28333 15.6836C6.55935 15.532 6.79273 15.3176 7.01899 15.0842C7.21091 14.8864 7.39808 14.6755 7.60658 14.4812C7.67055 14.4196 7.73689 14.3639 7.80679 14.3071C8.01766 14.1388 8.2534 13.986 8.50455 13.8723C8.68698 13.7906 8.88127 13.7266 9.0791 13.6899L9.08266 13.6922L9.08384 13.6934Z" fill="#2D937A"/>
<path d="M6.50723 17.3137C6.33309 17.1774 6.18264 17.0151 6.04996 16.8363C6.03929 16.8209 6.02626 16.8102 6.01442 16.7948L5.07617 17.444C5.14725 17.5317 5.22307 17.6134 5.30363 17.694C5.64836 18.0375 6.06299 18.31 6.52382 18.4912V17.3243C6.52382 17.3243 6.51315 17.3149 6.50723 17.3089L6.50368 17.3125H6.50723V17.3137Z" fill="#2D937A"/>
<path d="M7.85659 10.9189C5.50624 10.9189 3.60132 12.825 3.60132 15.1742C3.60132 17.5234 5.50742 19.4295 7.85659 19.4295C10.2058 19.4295 12.1119 17.5234 12.1119 15.1742C12.1119 12.825 10.2081 10.9189 7.85659 10.9189ZM8.34348 18.8774C8.25818 18.8881 8.16933 18.8999 8.08049 18.9059C8.03902 18.9094 7.99993 18.9118 7.96084 18.9118C7.92174 18.9118 7.88028 18.9153 7.84 18.9153H7.78195C7.72272 18.9153 7.6623 18.9118 7.60307 18.9082C7.5545 18.9047 7.50593 18.9023 7.45736 18.8976C7.15883 18.8691 6.87096 18.8064 6.59849 18.7128C6.59138 18.7128 6.58309 18.7092 6.57598 18.7057C5.90191 18.4687 5.31788 18.0434 4.88548 17.4938L4.87245 17.4784V17.4724C4.37963 16.8398 4.08466 16.0449 4.08466 15.179C4.08466 14.8911 4.11783 14.6115 4.17943 14.3426V14.3331C4.17943 14.3331 4.18298 14.3272 4.18298 14.3225C4.30856 13.7905 4.54549 13.3013 4.87008 12.8831C4.87008 12.8831 4.87008 12.8795 4.87363 12.8772L4.88074 12.8701C5.17927 12.491 5.54889 12.1688 5.97062 11.9295C5.97062 11.9295 5.97654 11.9259 5.97654 11.9235C6.23954 11.7766 6.52148 11.657 6.81883 11.5729C7.02733 11.5148 7.24412 11.4734 7.46447 11.4556L7.62913 11.4426C7.66823 11.439 7.70969 11.439 7.74878 11.4366C7.78432 11.4331 7.81986 11.4331 7.8554 11.4331C9.92143 11.4331 11.5977 13.1094 11.5977 15.1754C11.5977 17.0768 10.1797 18.6429 8.34229 18.8786H8.34466L8.34348 18.8774Z" fill="#2D937A"/>
<path d="M7.76303 15.4538C7.77606 15.4431 7.78909 15.4289 7.80212 15.4183C7.8116 15.4088 7.82107 15.4017 7.83055 15.3922L7.827 15.3827L7.62561 14.7181C7.46449 14.8745 7.31167 15.0451 7.15175 15.211C6.91245 15.4574 6.65538 15.6919 6.33789 15.8601C6.40897 16.0604 6.51203 16.2452 6.64235 16.4075C6.86625 16.3162 7.05342 16.1682 7.22638 16.0023C7.41355 15.8234 7.58059 15.622 7.76421 15.4538H7.76303Z" fill="#2D937A"/>
<path d="M7.71444 15.7547C7.54029 15.9359 7.36141 16.1409 7.14344 16.315C7.13751 16.3186 7.1304 16.3221 7.12448 16.328C7.07354 16.3671 7.02142 16.4027 6.96811 16.4382C6.91954 16.4619 6.73236 16.5555 6.7063 16.5638V18.5552C7.05696 18.6725 7.43012 18.7364 7.82224 18.7364C8.15039 18.7364 8.46788 18.6914 8.76996 18.6073V15.1884C8.5816 15.2204 8.40035 15.2702 8.23095 15.3448C8.05325 15.423 7.88977 15.5746 7.71562 15.7559H7.71325L7.71444 15.7547Z" fill="#2D937A"/>
<path d="M7.98338 15.2773C8.03906 15.2394 8.09711 15.2062 8.15752 15.1802C8.48449 15.0368 8.84818 14.9717 9.20831 14.9717C9.47486 14.9717 9.73785 15.0072 9.98899 15.0724C9.98899 15.0724 9.99136 15.07 9.99255 15.0688C9.96649 14.6246 9.83144 14.2135 9.61701 13.8687C9.59451 13.8628 9.57081 13.8581 9.55186 13.8533C9.49618 13.8439 9.45827 13.8439 9.45827 13.8439H9.3244C9.18817 13.8533 9.05194 13.8794 8.91925 13.9161C8.80553 13.9481 8.69299 13.9884 8.58281 14.0393C8.34588 14.1471 8.12317 14.2893 7.92178 14.4516C7.86965 14.4931 7.82108 14.5357 7.77014 14.5807L7.96087 15.2039L7.98338 15.2749V15.2773ZM9.52106 13.9588C9.54357 13.9517 9.56963 13.9647 9.57674 13.9884L9.81604 14.7703C9.82314 14.7951 9.81011 14.8212 9.78642 14.8259C9.76391 14.8331 9.73548 14.8224 9.73074 14.7963L9.49144 14.0145C9.48433 13.9908 9.49736 13.9635 9.52106 13.9588ZM8.92399 14.095C8.92399 14.095 9.08984 14.6376 9.1242 14.7478C9.13012 14.7715 9.11828 14.7987 9.09458 14.8034C9.07089 14.8105 9.04364 14.7975 9.03653 14.7738C8.98559 14.608 8.83633 14.1211 8.83633 14.1211C8.82922 14.0974 8.84225 14.0701 8.86594 14.0654C8.88845 14.0583 8.91688 14.0713 8.92162 14.095H8.92399ZM8.27836 14.3379C8.30087 14.3308 8.3293 14.3438 8.33404 14.3675C8.33404 14.3675 8.36958 14.4848 8.4063 14.6044C8.43473 14.6945 8.46079 14.7857 8.47501 14.8307C8.48212 14.8556 8.46909 14.8816 8.44539 14.8887C8.42289 14.8947 8.39682 14.8828 8.38971 14.8567C8.37313 14.8023 8.35654 14.7466 8.33877 14.6921C8.32219 14.6376 8.30679 14.5878 8.29376 14.5428C8.26533 14.4528 8.24756 14.3912 8.24756 14.3912C8.24045 14.3675 8.25348 14.3426 8.27717 14.3355V14.3379H8.27836Z" fill="#2D937A"/>
<path d="M10.2804 16.3518C10.2614 16.3162 10.2377 16.2712 10.2093 16.2191C10.1536 16.1196 10.0861 15.9976 10.0411 15.872C10.0091 15.7879 9.98893 15.7026 9.98893 15.6149V15.5699C9.98893 15.4621 9.96879 15.3484 9.94391 15.2465C9.71053 15.1849 9.46057 15.1517 9.21061 15.1517C9.12295 15.1517 9.03647 15.1553 8.95117 15.1648V17.431C9.04239 17.444 9.15256 17.4571 9.2651 17.4689C9.40845 17.4843 9.55297 17.495 9.65367 17.495H9.71527C9.75674 17.495 9.78398 17.4843 9.79701 17.4748C9.81241 17.4654 9.81952 17.4583 9.82663 17.4429C9.83018 17.4334 9.83374 17.4203 9.83729 17.4049C9.84085 17.386 9.84085 17.3623 9.84085 17.3339V17.2699C9.84085 17.2498 9.83729 17.2237 9.83729 17.1953C9.83729 17.1751 9.83729 17.1538 9.84085 17.1337C9.84085 17.1135 9.8444 17.0922 9.84795 17.0721C9.85151 17.0567 9.85388 17.0436 9.86098 17.027C9.87046 17.0105 9.88112 16.9974 9.89297 16.9844C9.90363 16.9737 9.91548 16.9643 9.92614 16.956C9.94154 16.9429 9.95931 16.9334 9.97471 16.9263L9.95931 16.8837V16.8801H9.71053C9.68566 16.8801 9.66552 16.86 9.66552 16.8351C9.66552 16.8102 9.68566 16.7901 9.71053 16.7901H9.98063L10.0233 16.7415V16.7249C10.0197 16.693 10.0174 16.6539 10.0138 16.6219C10.0103 16.6017 10.0103 16.5828 10.0079 16.5792V16.5638C10.0079 16.5437 10.0138 16.5247 10.0209 16.5117C10.028 16.4987 10.0363 16.4916 10.0446 16.4857C10.0576 16.475 10.0671 16.4703 10.0778 16.4667C10.0967 16.4596 10.1109 16.4537 10.1299 16.4501C10.1678 16.4406 10.2105 16.4312 10.246 16.4205C10.2697 16.4134 10.2922 16.4051 10.3052 16.3968V16.3909C10.2993 16.3802 10.2922 16.3648 10.2827 16.3459L10.2756 16.3518H10.2804ZM9.75674 15.9135C9.7283 15.9324 9.6975 15.9431 9.66315 15.9514C9.62998 15.9585 9.59207 15.9644 9.55534 15.9644C9.51862 15.9644 9.48427 15.9585 9.45228 15.9514C9.42029 15.9443 9.39305 15.9312 9.36817 15.9064C9.35277 15.8874 9.35514 15.8602 9.37409 15.8424C9.39305 15.827 9.42029 15.827 9.43806 15.8483C9.43806 15.8519 9.45346 15.8613 9.47597 15.8649C9.49848 15.8708 9.5281 15.8744 9.55653 15.8744C9.58496 15.8744 9.61813 15.8708 9.64419 15.8649C9.67026 15.859 9.69513 15.8495 9.7058 15.8412C9.72593 15.8258 9.75437 15.8305 9.7674 15.8507C9.7828 15.8708 9.77806 15.8992 9.75792 15.9146L9.75674 15.9135ZM9.78872 15.609C9.78872 15.609 9.76029 15.6019 9.7212 15.5924C9.6821 15.5829 9.63116 15.5699 9.59444 15.5604C9.56838 15.5545 9.5435 15.5498 9.53521 15.5474H9.52454C9.50559 15.5474 9.47597 15.5533 9.45346 15.5628C9.42977 15.5687 9.40845 15.5782 9.40489 15.5782C9.38239 15.5877 9.35632 15.5782 9.34685 15.5545C9.33737 15.532 9.34685 15.5036 9.37054 15.4953C9.37054 15.4953 9.39305 15.4882 9.42266 15.4787C9.45228 15.4692 9.48782 15.4597 9.52573 15.4597C9.53284 15.4597 9.54231 15.4597 9.54942 15.4633C9.56482 15.4633 9.58851 15.4704 9.61695 15.4787C9.64301 15.4846 9.67499 15.4941 9.70461 15.4988C9.76384 15.5142 9.81478 15.5273 9.81478 15.5273C9.83729 15.5332 9.85388 15.5593 9.84795 15.5818C9.84203 15.6055 9.81597 15.6209 9.79228 15.6149L9.78872 15.6114V15.609Z" fill="#2D937A"/>
<path d="M9.38833 11.9532L9.20708 12.2766L9.13008 12.4128L8.85168 12.908C8.87182 12.9186 8.89078 12.9281 8.91092 12.94C9.01517 12.998 9.11468 13.0655 9.20945 13.1402C9.24143 13.1639 9.27105 13.1887 9.30067 13.2148C9.38833 13.2918 9.46889 13.3735 9.54471 13.4612C9.54471 13.4636 9.54826 13.4648 9.55063 13.4671L9.9925 13.1876L10.2496 13.0253L10.5197 12.8535C10.2046 12.5514 9.87759 12.2019 9.38478 11.952V11.9555L9.38833 11.9532Z" fill="#2D937A"/>
<path d="M7.85662 12.6569C7.89572 12.6569 7.93362 12.6604 7.97272 12.6628C8.09592 12.6699 8.21676 12.6853 8.33522 12.7114C8.37668 12.7208 8.41578 12.7339 8.45606 12.7445C8.53306 12.767 8.60769 12.7931 8.68232 12.8251L9.0318 12.2031L9.21897 11.8714C8.86002 11.7186 8.41815 11.6191 7.84478 11.6179C7.80331 11.6179 7.76067 11.6179 7.71802 11.6203L7.79265 12.6604C7.81516 12.6604 7.83767 12.6569 7.86018 12.6569L7.85781 12.6592L7.85662 12.6569Z" fill="#2D937A"/>
<path d="M4.61776 15.7038L5.53587 15.5841H5.54179C5.52876 15.4763 5.51928 15.3661 5.51928 15.2536C5.51928 15.0724 5.53823 14.897 5.57377 14.7276V14.7205L4.33581 14.4575C4.28961 14.6909 4.26355 14.9302 4.26355 15.1778C4.26355 15.3721 4.28013 15.5604 4.30975 15.7452L4.3678 15.7381L4.62013 15.705H4.61776V15.7038Z" fill="#2D937A"/>
<path d="M11.5989 15.1766C11.5989 13.1105 9.92259 11.4343 7.85656 11.4343C7.82102 11.4343 7.78548 11.4343 7.74994 11.4378C7.70848 11.4378 7.66939 11.4378 7.63029 11.4437L7.46563 11.4568C7.24528 11.4769 7.02849 11.5184 6.81999 11.5741C6.52264 11.6582 6.24188 11.7754 5.9777 11.9247C5.9777 11.9247 5.97415 11.9283 5.97178 11.9306C5.55004 12.1699 5.18043 12.4922 4.8819 12.8712L4.87479 12.8784C4.87479 12.8784 4.87479 12.8819 4.87124 12.8843C4.54664 13.3025 4.30735 13.7917 4.18414 14.3236C4.18414 14.3272 4.18059 14.3307 4.18059 14.3343V14.3438C4.11899 14.6127 4.08582 14.8923 4.08582 15.1801C4.08582 16.0437 4.38079 16.8398 4.87361 17.4736V17.4795L4.88664 17.4949C5.32022 18.0434 5.90426 18.4711 6.57714 18.7068C6.58306 18.7104 6.59254 18.7128 6.59965 18.714C6.87212 18.8075 7.15999 18.8703 7.45852 18.8988C7.50709 18.9047 7.55566 18.9059 7.60423 18.9094C7.66346 18.9153 7.72388 18.9153 7.78311 18.9165H7.84116C7.88262 18.9165 7.92172 18.9165 7.962 18.913C8.00346 18.913 8.04255 18.9094 8.08165 18.907C8.17168 18.9011 8.25697 18.8905 8.34464 18.8786C8.43941 18.8656 8.533 18.849 8.62658 18.8277C10.323 18.4746 11.6001 16.9761 11.6001 15.1754H11.5977L11.5989 15.1766ZM9.65249 17.4961C9.5518 17.4961 9.40609 17.4855 9.26393 17.4701C9.15375 17.4594 9.04358 17.4464 8.95 17.4322V15.1659C9.03529 15.1588 9.12414 15.1529 9.20943 15.1529C9.45939 15.1529 9.70936 15.1861 9.94273 15.2477C9.96643 15.3484 9.98775 15.4645 9.98775 15.5711V15.6161C9.98775 15.7038 10.0103 15.7902 10.0399 15.8732C10.0849 15.9987 10.1524 16.1219 10.2081 16.2203C10.2365 16.2724 10.2602 16.3174 10.2792 16.3529C10.2887 16.3719 10.2946 16.3861 10.3017 16.398V16.4039C10.2887 16.411 10.2685 16.4193 10.2424 16.4276C10.2069 16.4382 10.1619 16.4477 10.1264 16.4572C10.1074 16.4607 10.0932 16.4667 10.0742 16.4738C10.0636 16.4773 10.0541 16.4809 10.0411 16.4927C10.034 16.4987 10.0257 16.5081 10.0174 16.5188C10.0079 16.5295 10.0043 16.5508 10.0043 16.5709V16.5863C10.0043 16.5863 10.0079 16.6088 10.0103 16.629C10.0138 16.6609 10.0162 16.7 10.0197 16.732V16.7486L9.97709 16.7972H9.70699C9.68329 16.7972 9.66197 16.8173 9.66197 16.8422C9.66197 16.8671 9.68211 16.8872 9.70699 16.8872H9.95576V16.8908L9.97116 16.9334C9.95576 16.9405 9.93799 16.95 9.92259 16.963C9.91193 16.9701 9.90009 16.9796 9.88942 16.9915C9.87876 17.0045 9.86691 17.0152 9.85744 17.0341C9.85033 17.0507 9.84678 17.0661 9.84441 17.0791C9.84085 17.0993 9.83848 17.1206 9.8373 17.1407C9.8373 17.1632 9.83375 17.1834 9.83375 17.2023C9.83375 17.2308 9.83374 17.2568 9.8373 17.277V17.3409C9.8373 17.367 9.8373 17.3931 9.83375 17.412C9.83019 17.4274 9.82782 17.4405 9.82308 17.4499C9.81597 17.4653 9.81005 17.4724 9.79347 17.4819C9.78044 17.4914 9.752 17.5009 9.71173 17.5021H9.65012L9.65723 17.4961H9.65249ZM7.83168 15.3946C7.82221 15.404 7.81273 15.4111 7.80325 15.4206C7.79022 15.4313 7.77719 15.4443 7.76416 15.4562C7.58172 15.6244 7.4135 15.8258 7.22633 16.0047C7.05218 16.1705 6.86619 16.3186 6.64229 16.4098C6.51198 16.2475 6.40892 16.0627 6.33784 15.8625C6.65532 15.6966 6.91239 15.4597 7.15169 15.2133C7.31162 15.0475 7.46563 14.8769 7.62555 14.7205L7.82694 15.3851L7.8305 15.3946H7.83168ZM6.40299 16.9678C5.96823 16.52 5.71471 15.8886 5.71471 15.224C5.71471 15.0747 5.73011 14.9266 5.75262 14.7856C5.76565 14.7134 5.78105 14.6423 5.79882 14.5712C6.03931 13.6377 6.7809 12.94 7.67886 12.8558H7.68242C7.74047 12.8499 7.7997 12.8464 7.85775 12.8464H7.8613C7.89684 12.8464 7.93238 12.8499 7.96792 12.8523C8.01886 12.8558 8.06624 12.8582 8.11482 12.8653C8.17997 12.8748 8.24394 12.8843 8.30554 12.8985C8.34464 12.908 8.38018 12.9186 8.41927 12.9305C8.53181 12.9637 8.63725 13.0075 8.74268 13.0596C8.77585 13.0762 8.81021 13.0951 8.84219 13.1141C8.93696 13.1698 9.02937 13.2314 9.11466 13.3025C9.14309 13.325 9.17034 13.3475 9.19877 13.3712C9.20943 13.3806 9.22128 13.3901 9.23076 13.3996C9.2888 13.4541 9.34448 13.5121 9.39661 13.5714C9.40372 13.5809 9.41201 13.5903 9.41912 13.5998C9.43807 13.6223 9.45821 13.646 9.47716 13.6685C9.48072 13.6721 9.48427 13.6756 9.48664 13.6792L9.3433 13.6697C9.3433 13.6697 9.31724 13.6413 9.2663 13.6022C9.22839 13.5726 9.17863 13.5347 9.11348 13.4956C9.08741 13.479 9.0578 13.4624 9.02818 13.4446C8.75334 13.2977 8.30436 13.1473 7.68953 13.2563C7.42416 13.3084 7.17302 13.4126 6.9503 13.5643C6.70034 13.7325 6.48947 13.9564 6.33665 14.2158C6.15422 14.5274 6.05708 14.884 6.05708 15.2465C6.05708 15.4514 6.08906 15.6493 6.14711 15.8364C6.22767 16.1018 6.35798 16.3423 6.53212 16.5472V17.0815C6.50369 17.0578 6.47407 17.0329 6.44801 17.0069C6.43498 16.9938 6.42195 16.9808 6.40892 16.9678H6.40655H6.40299ZM9.08504 13.6958C8.88721 13.7313 8.69529 13.7953 8.51049 13.8782C8.25816 13.9919 8.0236 14.1447 7.81273 14.313C7.74402 14.3686 7.67649 14.4267 7.61252 14.4871C7.40402 14.6814 7.21448 14.8934 7.02494 15.0901C6.79748 15.3235 6.56411 15.5379 6.28927 15.6895C6.2561 15.5474 6.23714 15.4017 6.23714 15.2512C6.23714 14.9207 6.32481 14.5937 6.49303 14.313C6.63282 14.076 6.82473 13.8711 7.05337 13.7195C7.28319 13.5631 7.55211 13.46 7.82813 13.4209C7.91342 13.4103 7.9999 13.4043 8.0852 13.4043C8.45481 13.4043 8.79954 13.5121 9.08978 13.6993L9.08623 13.697L9.08504 13.6958ZM7.77245 14.5831C7.82339 14.5381 7.87078 14.493 7.92409 14.4539C8.12548 14.2916 8.34938 14.1495 8.58512 14.0417C8.69529 13.9907 8.80665 13.9517 8.92156 13.9185C9.05424 13.8806 9.18811 13.8545 9.32671 13.8462H9.46058C9.46058 13.8462 9.49849 13.8462 9.55417 13.8557C9.57312 13.8592 9.59681 13.8652 9.61932 13.8711C9.83611 14.2158 9.9688 14.6269 9.99486 15.0711C9.99486 15.0711 9.99249 15.0735 9.9913 15.0747C9.74253 15.0095 9.47835 14.974 9.21062 14.974C8.85048 14.974 8.4868 15.0392 8.15983 15.1825C8.1006 15.2086 8.04255 15.2417 7.98569 15.2796L7.96318 15.2086L7.77245 14.5854V14.5831ZM10.522 12.8547L10.2519 13.0264L9.99486 13.1887L9.55298 13.4683C9.55298 13.4683 9.54943 13.4648 9.54706 13.4624C9.47006 13.3747 9.39068 13.2906 9.30302 13.216C9.2734 13.1899 9.24379 13.165 9.2118 13.1413C9.11703 13.0667 9.01752 12.9992 8.91327 12.9411C8.89432 12.9305 8.87418 12.921 8.85404 12.9092L9.13243 12.414L9.20943 12.2777L9.39068 11.9543C9.88113 12.2043 10.2081 12.5514 10.5256 12.8558V12.8523L10.522 12.8547ZM7.84353 11.6203C8.41809 11.6226 8.85878 11.7233 9.21773 11.8738L9.03055 12.2055L8.68108 12.8274C8.60881 12.7954 8.53181 12.7694 8.45481 12.7469C8.41572 12.7362 8.37425 12.7232 8.33398 12.7137C8.21669 12.6853 8.09468 12.671 7.97147 12.6651C7.93238 12.6627 7.89447 12.6592 7.85538 12.6592C7.83287 12.6592 7.81036 12.6627 7.78785 12.6627L7.71322 11.6226C7.75587 11.6226 7.79851 11.6203 7.83998 11.6203L7.84234 11.6179L7.84353 11.6203ZM7.5296 11.6333L7.60423 12.6746C7.34242 12.7066 7.09601 12.7871 6.86856 12.9044L6.15777 12.0325C6.57358 11.811 7.03678 11.6724 7.5296 11.6333ZM5.99903 12.1225L6.70982 12.9945C6.45393 13.1544 6.23003 13.3641 6.04523 13.614L5.07618 12.9139C5.33562 12.6 5.64719 12.331 5.99784 12.1225H5.99903ZM4.9672 13.0561L5.94572 13.7657C5.79645 14.0014 5.68391 14.2656 5.61402 14.5475L4.38079 14.2845C4.49689 13.8344 4.69946 13.4209 4.96838 13.0561H4.9672ZM4.33578 14.4599L5.57374 14.7229V14.73C5.5382 14.8994 5.51924 15.0771 5.51924 15.256C5.51924 15.3685 5.52872 15.4775 5.54175 15.5865H5.53583L4.61772 15.7061L4.36539 15.7393L4.30735 15.7464C4.27773 15.5616 4.26114 15.3709 4.26114 15.179C4.26114 14.9302 4.28721 14.6921 4.33341 14.4587H4.33578V14.4599ZM4.34525 15.9395V15.9324L5.56071 15.7736C5.56071 15.7736 5.56663 15.7713 5.57018 15.7701L5.5998 15.9123C5.66733 16.1776 5.77394 16.424 5.91373 16.6491L4.96601 17.3066C4.66866 16.9074 4.45306 16.4442 4.34407 15.9407H4.34644L4.34525 15.9395ZM6.52738 18.4948C6.06418 18.3135 5.65192 18.0411 5.30719 17.6975C5.22663 17.617 5.152 17.5329 5.07974 17.4476L6.01798 16.7984C6.02864 16.8138 6.04167 16.8268 6.05352 16.8398C6.18383 17.0187 6.33547 17.181 6.5108 17.3172L6.51435 17.3137C6.51435 17.3137 6.52383 17.3232 6.53094 17.3291V18.496H6.52738V18.4948ZM7.82221 18.7412C7.43246 18.7412 7.05692 18.6772 6.70626 18.5599V16.5685C6.7347 16.5614 6.9195 16.4679 6.96807 16.443C7.02257 16.4074 7.07469 16.3719 7.12445 16.3328C7.13037 16.3292 7.13748 16.3257 7.1434 16.3198C7.36138 16.1456 7.54144 15.9407 7.7144 15.7594C7.88855 15.5782 8.05203 15.4277 8.22973 15.3484C8.39913 15.2737 8.58038 15.2216 8.76874 15.192V18.6109C8.46666 18.695 8.14917 18.74 7.82102 18.74H7.82339L7.82221 18.7412Z" fill="white"/>
<path d="M8.34109 14.6944C8.35767 14.7489 8.37426 14.8046 8.39203 14.8591C8.39914 14.884 8.4252 14.897 8.44771 14.8911C8.47258 14.884 8.48561 14.8579 8.47732 14.833C8.46429 14.7868 8.43586 14.6968 8.40861 14.6068C8.3707 14.4871 8.33635 14.3698 8.33635 14.3698C8.33043 14.3473 8.30318 14.3319 8.28067 14.3402C8.25816 14.3473 8.24276 14.3722 8.25105 14.3959C8.25105 14.3959 8.27001 14.4575 8.29726 14.5475C8.31029 14.5926 8.32569 14.6423 8.34227 14.6968V14.6944H8.34109Z" fill="white"/>
<path d="M9.78871 14.8271C9.8124 14.8212 9.82662 14.7951 9.81832 14.7714L9.57903 13.9896C9.57192 13.9647 9.54585 13.9517 9.52335 13.96C9.50084 13.9659 9.48544 13.9919 9.49373 14.0156L9.73303 14.7975C9.73895 14.8224 9.76502 14.8354 9.78871 14.8271Z" fill="white"/>
<path d="M9.09568 14.8046C9.11819 14.7987 9.13122 14.7726 9.1253 14.7489C9.09213 14.6388 8.92509 14.0962 8.92509 14.0962C8.91917 14.0713 8.89192 14.0583 8.86942 14.0666C8.84691 14.0725 8.83151 14.0986 8.8398 14.1223C8.8398 14.1223 8.98906 14.6092 9.04 14.775C9.04711 14.7975 9.07318 14.8129 9.09805 14.8046H9.09568Z" fill="white"/>
<path d="M9.75679 15.9134C9.77693 15.898 9.78049 15.8708 9.76627 15.8494C9.75324 15.8293 9.72481 15.8258 9.70467 15.84C9.69401 15.8471 9.6715 15.8566 9.64307 15.8637C9.617 15.8696 9.58502 15.8731 9.5554 15.8731C9.52579 15.8731 9.49617 15.8696 9.47485 15.8637C9.45234 15.8577 9.43694 15.8483 9.43694 15.8471C9.42035 15.8281 9.39192 15.8269 9.37297 15.8412C9.35401 15.8577 9.35283 15.8862 9.36704 15.9051C9.39074 15.9288 9.41917 15.943 9.45115 15.9501C9.48314 15.9572 9.51868 15.9632 9.55422 15.9632C9.58976 15.9632 9.62648 15.9572 9.66202 15.9501C9.69519 15.943 9.72718 15.9312 9.75561 15.9122L9.75679 15.9134Z" fill="white"/>
<path d="M9.40133 15.5758C9.40133 15.5758 9.42384 15.5663 9.4499 15.5604C9.47241 15.5533 9.50203 15.545 9.52098 15.545H9.53164C9.5423 15.545 9.56481 15.5509 9.59088 15.558C9.62997 15.5675 9.68091 15.5805 9.71763 15.59C9.75673 15.5995 9.78516 15.6066 9.78516 15.6066C9.80885 15.6125 9.8361 15.5995 9.84084 15.5734C9.84676 15.5509 9.83136 15.5249 9.80767 15.5189C9.80767 15.5189 9.75554 15.5059 9.69749 15.4905C9.66788 15.4846 9.63826 15.4751 9.60983 15.4704C9.5814 15.4644 9.55771 15.4573 9.5423 15.455C9.5352 15.455 9.52572 15.4514 9.51743 15.4514C9.47952 15.4514 9.44516 15.4609 9.41436 15.4704C9.38475 15.4798 9.36224 15.487 9.36224 15.487C9.33973 15.4964 9.32907 15.5225 9.33854 15.5462C9.34802 15.5699 9.37408 15.5794 9.39659 15.5699L9.40015 15.5734L9.40133 15.5758Z" fill="white"/>
<path d="M0 12.8618L7.74881 9.33861L15.5012 12.8618L7.74881 0L0 12.8618Z" fill="url(#paint24_linear_34_1482)"/>
<path d="M7.74878 0V9.33861L15.5011 12.8618L7.74878 0Z" fill="url(#paint25_linear_34_1482)"/>
<path d="M0 12.8618L7.74881 9.94635V9.33862L0 12.8618Z" fill="#87CFC0"/>
<path d="M15.5 12.8618L7.75 9.94635V9.33862L15.5 12.8618Z" fill="url(#paint26_linear_34_1482)"/>
<defs>
<linearGradient id="paint0_linear_34_1482" x1="3.42127" y1="22.5534" x2="9.81365" y2="19.7564" gradientUnits="userSpaceOnUse">
<stop stop-color="#4DBEA1"/>
<stop offset="1" stop-color="#6AC6AF"/>
</linearGradient>
<linearGradient id="paint1_linear_34_1482" x1="7.75" y1="22.3544" x2="15.5059" y2="22.3544" gradientUnits="userSpaceOnUse">
<stop stop-color="#154237"/>
<stop offset="1" stop-color="#6AC6AF"/>
</linearGradient>
<linearGradient id="paint2_linear_34_1482" x1="3.64754" y1="18.6038" x2="7.11028" y2="21.5346" gradientUnits="userSpaceOnUse">
<stop stop-color="#154237"/>
<stop offset="1" stop-color="#6AC6AF"/>
</linearGradient>
<linearGradient id="paint3_linear_34_1482" x1="5.19467" y1="19.0539" x2="6.96809" y2="15.1837" gradientUnits="userSpaceOnUse">
<stop stop-color="#154237"/>
<stop offset="1" stop-color="#6AC6AF"/>
</linearGradient>
<linearGradient id="paint4_linear_34_1482" x1="3.91532" y1="18.4675" x2="5.68875" y2="14.5985" gradientUnits="userSpaceOnUse">
<stop stop-color="#154237"/>
<stop offset="1" stop-color="#6AC6AF"/>
</linearGradient>
<linearGradient id="paint5_linear_34_1482" x1="3.32529" y1="18.1975" x2="5.09753" y2="14.3272" gradientUnits="userSpaceOnUse">
<stop stop-color="#154237"/>
<stop offset="1" stop-color="#6AC6AF"/>
</linearGradient>
<linearGradient id="paint6_linear_34_1482" x1="3.11096" y1="18.0991" x2="4.88438" y2="14.2289" gradientUnits="userSpaceOnUse">
<stop stop-color="#154237"/>
<stop offset="1" stop-color="#6AC6AF"/>
</linearGradient>
<linearGradient id="paint7_linear_34_1482" x1="3.95795" y1="18.4877" x2="5.73019" y2="14.6174" gradientUnits="userSpaceOnUse">
<stop stop-color="#154237"/>
<stop offset="1" stop-color="#6AC6AF"/>
</linearGradient>
<linearGradient id="paint8_linear_34_1482" x1="5.28351" y1="19.0954" x2="7.05694" y2="15.2252" gradientUnits="userSpaceOnUse">
<stop stop-color="#154237"/>
<stop offset="1" stop-color="#6AC6AF"/>
</linearGradient>
<linearGradient id="paint9_linear_34_1482" x1="5.14728" y1="19.0326" x2="6.92071" y2="15.1624" gradientUnits="userSpaceOnUse">
<stop stop-color="#154237"/>
<stop offset="1" stop-color="#6AC6AF"/>
</linearGradient>
<linearGradient id="paint10_linear_34_1482" x1="5.79059" y1="19.3264" x2="7.56283" y2="15.4574" gradientUnits="userSpaceOnUse">
<stop stop-color="#154237"/>
<stop offset="1" stop-color="#6AC6AF"/>
</linearGradient>
<linearGradient id="paint11_linear_34_1482" x1="5.32268" y1="19.1132" x2="7.0961" y2="15.2429" gradientUnits="userSpaceOnUse">
<stop stop-color="#154237"/>
<stop offset="1" stop-color="#6AC6AF"/>
</linearGradient>
<linearGradient id="paint12_linear_34_1482" x1="6.60564" y1="19.7008" x2="8.37906" y2="15.8305" gradientUnits="userSpaceOnUse">
<stop stop-color="#154237"/>
<stop offset="1" stop-color="#6AC6AF"/>
</linearGradient>
<linearGradient id="paint13_linear_34_1482" x1="6.50497" y1="19.6546" x2="8.2772" y2="15.7843" gradientUnits="userSpaceOnUse">
<stop stop-color="#154237"/>
<stop offset="1" stop-color="#6AC6AF"/>
</linearGradient>
<linearGradient id="paint14_linear_34_1482" x1="7.48698" y1="20.1048" x2="9.25922" y2="16.2345" gradientUnits="userSpaceOnUse">
<stop stop-color="#154237"/>
<stop offset="1" stop-color="#6AC6AF"/>
</linearGradient>
<linearGradient id="paint15_linear_34_1482" x1="6.43503" y1="19.6226" x2="8.20845" y2="15.7523" gradientUnits="userSpaceOnUse">
<stop stop-color="#154237"/>
<stop offset="1" stop-color="#6AC6AF"/>
</linearGradient>
<linearGradient id="paint16_linear_34_1482" x1="4.99572" y1="18.9628" x2="6.76914" y2="15.0925" gradientUnits="userSpaceOnUse">
<stop stop-color="#154237"/>
<stop offset="1" stop-color="#6AC6AF"/>
</linearGradient>
<linearGradient id="paint17_linear_34_1482" x1="3.3206" y1="18.1963" x2="5.09402" y2="14.326" gradientUnits="userSpaceOnUse">
<stop stop-color="#154237"/>
<stop offset="1" stop-color="#6AC6AF"/>
</linearGradient>
<linearGradient id="paint18_linear_34_1482" x1="5.7799" y1="19.3229" x2="7.55332" y2="15.4526" gradientUnits="userSpaceOnUse">
<stop stop-color="#154237"/>
<stop offset="1" stop-color="#6AC6AF"/>
</linearGradient>
<linearGradient id="paint19_linear_34_1482" x1="5.99788" y1="19.4224" x2="7.7713" y2="15.5521" gradientUnits="userSpaceOnUse">
<stop stop-color="#154237"/>
<stop offset="1" stop-color="#6AC6AF"/>
</linearGradient>
<linearGradient id="paint20_linear_34_1482" x1="6.98111" y1="19.8726" x2="8.75453" y2="16.0023" gradientUnits="userSpaceOnUse">
<stop stop-color="#154237"/>
<stop offset="1" stop-color="#6AC6AF"/>
</linearGradient>
<linearGradient id="paint21_linear_34_1482" x1="6.44092" y1="19.625" x2="8.21434" y2="15.7547" gradientUnits="userSpaceOnUse">
<stop stop-color="#154237"/>
<stop offset="1" stop-color="#6AC6AF"/>
</linearGradient>
<linearGradient id="paint22_linear_34_1482" x1="7.46926" y1="20.0965" x2="9.24271" y2="16.2262" gradientUnits="userSpaceOnUse">
<stop stop-color="#154237"/>
<stop offset="1" stop-color="#6AC6AF"/>
</linearGradient>
<linearGradient id="paint23_linear_34_1482" x1="7.36376" y1="20.0479" x2="9.13721" y2="16.1776" gradientUnits="userSpaceOnUse">
<stop stop-color="#154237"/>
<stop offset="1" stop-color="#6AC6AF"/>
</linearGradient>
<linearGradient id="paint24_linear_34_1482" x1="11.689" y1="6.38172" x2="1.96534" y2="13.973" gradientUnits="userSpaceOnUse">
<stop stop-color="#154237"/>
<stop offset="1" stop-color="#6AC6AF"/>
</linearGradient>
<linearGradient id="paint25_linear_34_1482" x1="7.74878" y1="6.43147" x2="15.5011" y2="6.43147" gradientUnits="userSpaceOnUse">
<stop stop-color="#4DBEA1"/>
<stop offset="1" stop-color="#6AC6AF"/>
</linearGradient>
<linearGradient id="paint26_linear_34_1482" x1="14.3177" y1="9.57792" x2="9.21186" y2="12.4637" gradientUnits="userSpaceOnUse">
<stop stop-color="#154237"/>
<stop offset="1" stop-color="#6AC6AF"/>
</linearGradient>
</defs>
</svg>
