<svg width="148" height="30" viewBox="0 0 148 30" fill="none" xmlns="http://www.w3.org/2000/svg">
  <path d="M0 5.625C0 2.5184 2.4723 0 5.52205 0H14.7255V15H0V5.625Z" fill="#01BE86"/>
  <path d="M14.7255 15H29.4509V24.375C29.4509 27.4816 26.9786 30 23.9289 30H14.7255V15Z" fill="#0052A3"/>
  <path d="M0 15H14.7255V30H0V15Z" fill="url(#paint0_linear_641_32562)"/>
  <path d="M18.3774 3.75V0H29.4215V11.25H25.7401V3.75H18.3774Z" fill="#0052A3"/>
  <path d="M41.0944 12.4999C41.6133 11.7202 42.3243 11.0866 43.2274 10.5993C44.1498 10.112 45.197 9.8683 46.3692 9.8683C47.7335 9.8683 48.9634 10.2094 50.0587 10.8917C51.1732 11.574 52.0475 12.5487 52.6817 13.8157C53.335 15.0633 53.6617 16.5156 53.6617 18.1726C53.6617 19.8295 53.335 21.3013 52.6817 22.5878C52.0475 23.8549 51.1732 24.8393 50.0587 25.5411C48.9634 26.2429 47.7335 26.5938 46.3692 26.5938C45.1778 26.5938 44.1306 26.3598 43.2274 25.892C42.3435 25.4047 41.6325 24.7809 41.0944 24.0206V26.3306H37.0591V4.69276H41.0944V12.4999ZM49.5398 18.1726C49.5398 17.1979 49.3381 16.3597 48.9345 15.6579C48.5502 14.9366 48.0314 14.3908 47.3781 14.0204C46.7439 13.65 46.0521 13.4649 45.3027 13.4649C44.5725 13.4649 43.8807 13.6598 43.2274 14.0497C42.5933 14.42 42.0744 14.9659 41.6709 15.6871C41.2866 16.4084 41.0944 17.2564 41.0944 18.231C41.0944 19.2057 41.2866 20.0537 41.6709 20.7749C42.0744 21.4962 42.5933 22.0518 43.2274 22.4416C43.8807 22.812 44.5725 22.9972 45.3027 22.9972C46.0521 22.9972 46.7439 22.8023 47.3781 22.4124C48.0314 22.0225 48.5502 21.467 48.9345 20.7457C49.3381 20.0244 49.5398 19.1667 49.5398 18.1726Z" fill="#282C47"/>
  <path d="M70.8619 17.8802C70.8619 18.465 70.8235 18.9913 70.7466 19.4591H59.0729C59.169 20.6287 59.5725 21.5449 60.2835 22.2077C60.9945 22.8705 61.8688 23.2019 62.9065 23.2019C64.4053 23.2019 65.4718 22.5489 66.106 21.2428H70.4584C69.9972 22.8023 69.1133 24.0888 67.8066 25.1025C66.4999 26.0967 64.8953 26.5938 62.993 26.5938C61.4557 26.5938 60.0721 26.2526 58.8423 25.5704C57.6317 24.8686 56.6805 23.8842 55.9888 22.6171C55.3162 21.35 54.9799 19.888 54.9799 18.231C54.9799 16.5546 55.3162 15.0828 55.9888 13.8157C56.6613 12.5487 57.6029 11.574 58.8135 10.8917C60.0241 10.2094 61.4173 9.8683 62.993 9.8683C64.511 9.8683 65.8658 10.1997 67.0571 10.8625C68.2677 11.5253 69.1997 12.4707 69.8531 13.6988C70.5256 14.9074 70.8619 16.3012 70.8619 17.8802ZM66.6824 16.7105C66.6632 15.6579 66.2885 14.8197 65.5583 14.1959C64.8281 13.5526 63.9345 13.2309 62.8777 13.2309C61.8784 13.2309 61.0329 13.5428 60.3412 14.1666C59.6686 14.7709 59.2555 15.6189 59.1017 16.7105H66.6824Z" fill="#282C47"/>
  <path d="M82.6851 26.3306L77.2662 19.4299V26.3306H73.2309V4.69276H77.2662V17.0029L82.6275 10.1315H87.8734L80.8404 18.2603L87.9311 26.3306H82.6851Z" fill="#282C47"/>
  <path d="M93.5225 10.1315V26.3306H89.4871V10.1315H93.5225Z" fill="#282C47"/>
  <path d="M103.044 26.5938C101.737 26.5938 100.565 26.3598 99.5271 25.892C98.4894 25.4047 97.6631 24.7516 97.0482 23.9329C96.4525 23.1142 96.1259 22.2077 96.0682 21.2135H100.132C100.209 21.8373 100.507 22.3539 101.026 22.7633C101.564 23.1726 102.227 23.3773 103.015 23.3773C103.783 23.3773 104.379 23.2214 104.802 22.9095C105.244 22.5976 105.465 22.198 105.465 21.7106C105.465 21.1843 105.196 20.7944 104.658 20.541C104.139 20.2681 103.303 19.9757 102.15 19.6638C100.959 19.3714 99.9787 19.0693 99.21 18.7574C98.4606 18.4455 97.8072 17.9679 97.25 17.3246C96.7119 16.6813 96.4429 15.8138 96.4429 14.7222C96.4429 13.8255 96.6927 13.0068 97.1923 12.266C97.7112 11.5253 98.4414 10.9404 99.383 10.5116C100.344 10.0827 101.468 9.8683 102.755 9.8683C104.658 9.8683 106.176 10.3556 107.31 11.3303C108.443 12.2855 109.068 13.5818 109.183 15.2193H105.321C105.263 14.576 104.994 14.0692 104.514 13.6988C104.052 13.3089 103.428 13.114 102.64 13.114C101.91 13.114 101.343 13.2504 100.939 13.5233C100.555 13.7963 100.363 14.1764 100.363 14.6637C100.363 15.2095 100.632 15.6286 101.17 15.921C101.708 16.194 102.544 16.4766 103.678 16.769C104.831 17.0614 105.782 17.3636 106.531 17.6755C107.281 17.9874 107.924 18.4747 108.462 19.1375C109.02 19.7808 109.308 20.6385 109.327 21.7106C109.327 22.6463 109.068 23.4845 108.549 24.2253C108.049 24.9661 107.319 25.5509 106.358 25.9797C105.417 26.3891 104.312 26.5938 103.044 26.5938Z" fill="#282C47"/>
  <path d="M119.154 26.5938C117.617 26.5938 116.233 26.2526 115.003 25.5704C113.773 24.8686 112.803 23.8842 112.092 22.6171C111.4 21.35 111.054 19.888 111.054 18.231C111.054 16.5741 111.41 15.1121 112.121 13.845C112.851 12.5779 113.841 11.6032 115.09 10.921C116.339 10.2192 117.732 9.8683 119.269 9.8683C120.807 9.8683 122.2 10.2192 123.449 10.921C124.698 11.6032 125.678 12.5779 126.389 13.845C127.119 15.1121 127.484 16.5741 127.484 18.231C127.484 19.888 127.109 21.35 126.36 22.6171C125.63 23.8842 124.63 24.8686 123.362 25.5704C122.113 26.2526 120.71 26.5938 119.154 26.5938ZM119.154 23.0264C119.884 23.0264 120.566 22.851 121.2 22.5001C121.854 22.1297 122.373 21.5839 122.757 20.8627C123.141 20.1414 123.333 19.2642 123.333 18.231C123.333 16.691 122.93 15.5117 122.123 14.693C121.335 13.8547 120.365 13.4356 119.212 13.4356C118.059 13.4356 117.088 13.8547 116.3 14.693C115.532 15.5117 115.147 16.691 115.147 18.231C115.147 19.771 115.522 20.9601 116.272 21.7984C117.04 22.6171 118.001 23.0264 119.154 23.0264Z" fill="#282C47"/>
  <path d="M137.189 13.4941H134.393V26.3306H130.3V13.4941H128.484V10.1315H130.3V9.31274C130.3 7.32439 130.857 5.86238 131.972 4.92669C133.086 3.991 134.768 3.55239 137.016 3.61087V7.06123C136.036 7.04174 135.354 7.20743 134.969 7.55832C134.585 7.9092 134.393 8.54274 134.393 9.45894V10.1315H137.189V13.4941Z" fill="#282C47"/>
  <path d="M143.926 13.4941V21.3305C143.926 21.8763 144.051 22.2759 144.301 22.5294C144.57 22.7633 145.012 22.8802 145.626 22.8802H147.5V26.3306H144.964C141.562 26.3306 139.862 24.6542 139.862 21.3013V13.4941H137.959V10.1315H139.862V6.12554H143.926V10.1315H147.5V13.4941H143.926Z" fill="#282C47"/>
  <path d="M89.8043 7.58324C90.2659 8.03748 90.8384 8.2646 91.5216 8.2646C92.2048 8.2646 92.768 8.03748 93.2112 7.58324C93.6728 7.10926 93.9036 6.52665 93.9036 5.83542C93.9036 5.1442 93.6728 4.57146 93.2112 4.11723C92.768 3.64324 92.2048 3.40625 91.5216 3.40625C90.8384 3.40625 90.2659 3.64324 89.8043 4.11723C89.3611 4.57146 89.1395 5.1442 89.1395 5.83542C89.1395 6.52665 89.3611 7.10926 89.8043 7.58324Z" fill="#01BE86"/>
  <defs>
    <linearGradient id="paint0_linear_641_32562" x1="0" y1="15" x2="14.9974" y2="29.7229" gradientUnits="userSpaceOnUse">
      <stop stop-color="#01BE86"/>
      <stop offset="1" stop-color="#0052A3"/>
    </linearGradient>
  </defs>
</svg>
